<?xml version="1.0" encoding="UTF-8"?>
<svg width="196" height="32" viewBox="0 0 196 32" fill="none" xmlns="http://www.w3.org/2000/svg">
<path d="M66.9444 24.5H69.3056V24.8438C69.3056 25.3183 69.1979 25.7465 68.9826 26.1285C68.7697 26.5104 68.4734 26.809 68.0938 27.0243C67.7141 27.2396 67.2882 27.3472 66.816 27.3472C66.4549 27.3472 66.1157 27.2824 65.7986 27.1528C65.4815 27.0208 65.2095 26.8426 64.9826 26.6181C64.7558 26.3935 64.5764 26.125 64.4444 25.8125C64.3148 25.4977 64.25 25.162 64.25 24.8056C64.25 24.4491 64.316 24.1146 64.4479 23.8021C64.5799 23.4873 64.7604 23.2176 64.9896 22.9931C65.2188 22.7685 65.4931 22.5914 65.8125 22.4618C66.1319 22.3322 66.4734 22.2674 66.8368 22.2674C67.2627 22.2674 67.6551 22.353 68.0139 22.5243C68.375 22.6956 68.6655 22.9306 68.8854 23.2292L68.1458 23.8194C67.9977 23.6273 67.8113 23.478 67.5868 23.3715C67.3646 23.2627 67.1215 23.2083 66.8576 23.2083C66.4016 23.2083 66.0208 23.36 65.7153 23.6632C65.4097 23.9664 65.2569 24.3472 65.2569 24.8056C65.2569 25.2639 65.4086 25.6458 65.7118 25.9514C66.015 26.2546 66.3947 26.4063 66.8507 26.4063C67.2025 26.4063 67.5093 26.3113 67.7708 26.1215C68.0324 25.9294 68.2002 25.6806 68.2743 25.375H66.9444V24.5Z" fill="#ffffff"/>
<path d="M73.4264 27.2604L72.2944 25.5104H71.7111V27.2604H70.7285V22.3542H72.8188C73.291 22.3542 73.6868 22.5081 74.0063 22.816C74.3257 23.1215 74.4854 23.5035 74.4854 23.9618C74.4854 24.309 74.3836 24.6157 74.1799 24.8819C73.9785 25.1458 73.7123 25.3299 73.3813 25.434L74.6069 27.2604H73.4264ZM71.7111 23.2778V24.6563H72.7979C72.99 24.6563 73.1509 24.5914 73.2806 24.4618C73.4102 24.3299 73.475 24.1655 73.475 23.9688C73.475 23.772 73.4102 23.6076 73.2806 23.4757C73.1509 23.3438 72.99 23.2778 72.7979 23.2778H71.7111Z" fill="#ffffff"/>
<path d="M79.2556 27.1528C78.9361 27.2824 78.5947 27.3472 78.2312 27.3472C77.8678 27.3472 77.5264 27.2824 77.2069 27.1528C76.8875 27.0208 76.6132 26.8426 76.384 26.6181C76.1549 26.3935 75.9743 26.125 75.8424 25.8125C75.7104 25.4977 75.6444 25.162 75.6444 24.8056C75.6444 24.4491 75.7104 24.1146 75.8424 23.8021C75.9743 23.4873 76.1549 23.2176 76.384 22.9931C76.6132 22.7685 76.8875 22.5914 77.2069 22.4618C77.5264 22.3322 77.8678 22.2674 78.2312 22.2674C78.715 22.2674 79.1549 22.3785 79.5507 22.6007C79.9465 22.8206 80.2567 23.125 80.4813 23.5139C80.7081 23.9005 80.8215 24.331 80.8215 24.8056C80.8215 25.162 80.7544 25.4977 80.6201 25.8125C80.4882 26.125 80.3076 26.3935 80.0785 26.6181C79.8516 26.8426 79.5773 27.0208 79.2556 27.1528ZM77.1028 25.9444C77.406 26.2477 77.7822 26.3993 78.2312 26.3993C78.6803 26.3993 79.0553 26.2477 79.3562 25.9444C79.6595 25.6389 79.8111 25.2593 79.8111 24.8056C79.8111 24.3519 79.6595 23.9734 79.3562 23.6701C79.0553 23.3669 78.6803 23.2153 78.2312 23.2153C77.7822 23.2153 77.406 23.3669 77.1028 23.6701C76.8019 23.9734 76.6514 24.3519 76.6514 24.8056C76.6514 25.2593 76.8019 25.6389 77.1028 25.9444Z" fill="#ffffff"/>
<path d="M85.2549 27.0903C84.9447 27.2616 84.5986 27.3472 84.2167 27.3472C83.8347 27.3472 83.4887 27.2616 83.1785 27.0903C82.8683 26.9167 82.6252 26.6782 82.4493 26.375C82.2734 26.0718 82.1854 25.7338 82.1854 25.3611V22.3542H83.1646V25.3472C83.1646 25.6458 83.2641 25.8958 83.4632 26.0972C83.6646 26.2986 83.9157 26.3993 84.2167 26.3993C84.5176 26.3993 84.7687 26.2986 84.9701 26.0972C85.1715 25.8958 85.2722 25.6458 85.2722 25.3472V22.3542H86.2514V25.3611C86.2514 25.7338 86.1623 26.0718 85.984 26.375C85.8081 26.6782 85.565 26.9167 85.2549 27.0903Z" fill="#ffffff"/>
<path d="M90.0042 22.3542C90.481 22.3542 90.8803 22.5104 91.2021 22.8229C91.5262 23.1354 91.6882 23.5243 91.6882 23.9896C91.6882 24.4549 91.5262 24.8438 91.2021 25.1563C90.8803 25.4688 90.481 25.625 90.0042 25.625H88.8444V27.2604H87.8618V22.3542H90.0042ZM89.9833 24.7014C90.1824 24.7014 90.3479 24.6343 90.4799 24.5C90.6118 24.3634 90.6778 24.1933 90.6778 23.9896C90.6778 23.7859 90.6118 23.6169 90.4799 23.4826C90.3479 23.3461 90.1824 23.2778 89.9833 23.2778H88.8444V24.7014H89.9833Z" fill="#ffffff"/>
<path d="M97.7146 27.3472C97.3512 27.3472 97.0097 27.2824 96.6903 27.1528C96.3708 27.0208 96.0965 26.8426 95.8674 26.6181C95.6382 26.3935 95.4576 26.125 95.3257 25.8125C95.1938 25.4977 95.1278 25.162 95.1278 24.8056C95.1278 24.4491 95.1938 24.1146 95.3257 23.8021C95.4576 23.4873 95.6382 23.2176 95.8674 22.9931C96.0965 22.7685 96.3708 22.5914 96.6903 22.4618C97.0097 22.3322 97.3512 22.2674 97.7146 22.2674C98.1683 22.2674 98.585 22.3657 98.9646 22.5625C99.3442 22.7593 99.6486 23.0289 99.8778 23.3715L99.0306 23.8958C98.887 23.6829 98.7007 23.5162 98.4715 23.3958C98.2424 23.2755 97.99 23.2153 97.7146 23.2153C97.2655 23.2153 96.8894 23.3669 96.5861 23.6701C96.2852 23.9734 96.1347 24.3519 96.1347 24.8056C96.1347 25.2593 96.2852 25.6389 96.5861 25.9444C96.8894 26.2477 97.2655 26.3993 97.7146 26.3993C97.99 26.3993 98.2424 26.3391 98.4715 26.2188C98.7007 26.0984 98.887 25.9317 99.0306 25.7188L99.8778 26.2431C99.6486 26.5856 99.3442 26.8553 98.9646 27.0521C98.585 27.2488 98.1683 27.3472 97.7146 27.3472Z" fill="#ffffff"/>
<path d="M103.488 21.4375L103.089 21.9549H102.224L102.926 20.9375H104.044L104.749 21.9549H103.881L103.488 21.4375ZM103.488 22.2674C103.972 22.2674 104.412 22.3785 104.808 22.6007C105.203 22.8206 105.514 23.125 105.738 23.5139C105.965 23.9005 106.078 24.331 106.078 24.8056C106.078 25.162 106.011 25.4977 105.877 25.8125C105.745 26.125 105.565 26.3935 105.335 26.6181C105.109 26.8426 104.834 27.0208 104.513 27.1528C104.193 27.2824 103.852 27.3472 103.488 27.3472C103.125 27.3472 102.783 27.2824 102.464 27.1528C102.144 27.0208 101.87 26.8426 101.641 26.6181C101.412 26.3935 101.231 26.125 101.099 25.8125C100.967 25.4977 100.901 25.162 100.901 24.8056C100.901 24.4491 100.967 24.1146 101.099 23.8021C101.231 23.4873 101.412 23.2176 101.641 22.9931C101.87 22.7685 102.144 22.5914 102.464 22.4618C102.783 22.3322 103.125 22.2674 103.488 22.2674ZM102.36 25.9444C102.663 26.2477 103.039 26.3993 103.488 26.3993C103.937 26.3993 104.312 26.2477 104.613 25.9444C104.916 25.6389 105.068 25.2593 105.068 24.8056C105.068 24.3519 104.916 23.9734 104.613 23.6701C104.312 23.3669 103.937 23.2153 103.488 23.2153C103.039 23.2153 102.663 23.3669 102.36 23.6701C102.059 23.9734 101.908 24.3519 101.908 24.8056C101.908 25.2593 102.059 25.6389 102.36 25.9444Z" fill="#ffffff"/>
<path d="M110.692 22.3542V23.2778H109.276V27.2604H108.297V23.2778H106.873V22.3542H110.692Z" fill="#ffffff"/>
<path d="M113.067 26.3368H115.421V27.2604H112.084V22.3542H115.386V23.2778H113.067V24.3299H115.15V25.2535H113.067V26.3368Z" fill="#ffffff"/>
<path d="M121.176 22.3542C121.528 22.3542 121.859 22.4167 122.169 22.5417C122.48 22.6667 122.745 22.838 122.965 23.0556C123.187 23.2708 123.362 23.5301 123.489 23.8333C123.616 24.1366 123.68 24.4606 123.68 24.8056C123.68 25.1505 123.616 25.4745 123.489 25.7778C123.362 26.081 123.187 26.3414 122.965 26.559C122.745 26.7766 122.48 26.9479 122.169 27.0729C121.859 27.1979 121.528 27.2604 121.176 27.2604H119.256V22.3542H121.176ZM121.156 26.3368C121.588 26.3368 121.948 26.191 122.235 25.8993C122.525 25.6076 122.669 25.2431 122.669 24.8056C122.669 24.3681 122.525 24.0046 122.235 23.7153C121.948 23.4236 121.588 23.2778 121.156 23.2778H120.239V26.3368H121.156Z" fill="#ffffff"/>
<path d="M124.967 24.2604L124.908 22.3542H125.825L125.763 24.2604H124.967Z" fill="#ffffff"/>
<path d="M127.373 27.2604V22.3542H128.356V27.2604H127.373Z" fill="#ffffff"/>
<path d="M133.469 22.3542H134.546L132.594 27.2604H131.588L129.636 22.3542H130.733L132.105 25.9583L133.469 22.3542Z" fill="#ffffff"/>
<path d="M138.889 27.1528C138.569 27.2824 138.228 27.3472 137.865 27.3472C137.501 27.3472 137.16 27.2824 136.84 27.1528C136.521 27.0208 136.247 26.8426 136.017 26.6181C135.788 26.3935 135.608 26.125 135.476 25.8125C135.344 25.4977 135.278 25.162 135.278 24.8056C135.278 24.4491 135.344 24.1146 135.476 23.8021C135.608 23.4873 135.788 23.2176 136.017 22.9931C136.247 22.7685 136.521 22.5914 136.84 22.4618C137.16 22.3322 137.501 22.2674 137.865 22.2674C138.348 22.2674 138.788 22.3785 139.184 22.6007C139.58 22.8206 139.89 23.125 140.115 23.5139C140.341 23.9005 140.455 24.331 140.455 24.8056C140.455 25.162 140.388 25.4977 140.253 25.8125C140.122 26.125 139.941 26.3935 139.712 26.6181C139.485 26.8426 139.211 27.0208 138.889 27.1528ZM136.736 25.9444C137.039 26.2477 137.416 26.3993 137.865 26.3993C138.314 26.3993 138.689 26.2477 138.99 25.9444C139.293 25.6389 139.444 25.2593 139.444 24.8056C139.444 24.3519 139.293 23.9734 138.99 23.6701C138.689 23.3669 138.314 23.2153 137.865 23.2153C137.416 23.2153 137.039 23.3669 136.736 23.6701C136.435 23.9734 136.285 24.3519 136.285 24.8056C136.285 25.2593 136.435 25.6389 136.736 25.9444Z" fill="#ffffff"/>
<path d="M141.909 27.2604V22.3542H142.892V27.2604H141.909Z" fill="#ffffff"/>
<path d="M147.297 27.2604L146.165 25.5104H145.582V27.2604H144.599V22.3542H146.69C147.162 22.3542 147.558 22.5081 147.877 22.816C148.197 23.1215 148.356 23.5035 148.356 23.9618C148.356 24.309 148.254 24.6157 148.051 24.8819C147.849 25.1458 147.583 25.3299 147.252 25.434L148.478 27.2604H147.297ZM145.582 23.2778V24.6563H146.669C146.861 24.6563 147.022 24.5914 147.151 24.4618C147.281 24.3299 147.346 24.1655 147.346 23.9688C147.346 23.772 147.281 23.6076 147.151 23.4757C147.022 23.3438 146.861 23.2778 146.669 23.2778H145.582Z" fill="#ffffff"/>
<path d="M150.793 26.3368H153.147V27.2604H149.81V22.3542H153.113V23.2778H150.793V24.3299H152.876V25.2535H150.793V26.3368Z" fill="#ffffff"/>
<path d="M72.8299 10.3994C73.5054 10.642 74.0564 11.0979 74.4827 11.7669C74.909 12.4358 75.1221 13.1835 75.1221 14.0099C75.1221 15.1052 74.7516 16.007 74.0105 16.7154C73.2693 17.4237 72.338 17.7779 71.2165 17.7779H64.2217V3.87681H70.7541C71.7969 3.87681 72.6725 4.2113 73.3808 4.88028C74.0892 5.54926 74.4433 6.39533 74.4433 7.41848C74.4433 8.06122 74.2925 8.6515 73.9908 9.18931C73.6891 9.72712 73.3021 10.1305 72.8299 10.3994ZM70.0654 6.37565H66.9271V9.43526H70.0654C70.4786 9.43526 70.8328 9.28769 71.1279 8.99255C71.4296 8.69741 71.5805 8.33341 71.5805 7.90054C71.5805 7.46766 71.4362 7.10694 71.1476 6.81836C70.859 6.52322 70.4983 6.37565 70.0654 6.37565ZM70.5278 15.279C71.0197 15.279 71.4329 15.1118 71.7674 14.7773C72.1019 14.4362 72.2691 14.0197 72.2691 13.5279C72.2691 13.0425 72.1019 12.6326 71.7674 12.2981C71.4329 11.9636 71.0197 11.7964 70.5278 11.7964H66.9271V15.279H70.5278Z" fill="#ffffff"/>
<path d="M84.5961 17.7779L81.3889 12.8195H79.7361V17.7779H76.952V3.87681H82.8745C84.2124 3.87681 85.334 4.31296 86.239 5.18526C87.1441 6.051 87.5967 7.13317 87.5967 8.43179C87.5967 9.41558 87.3081 10.2846 86.7309 11.0388C86.1603 11.7865 85.4061 12.3079 84.4682 12.6031L87.941 17.7779H84.5961ZM79.7361 6.49371V10.3994H82.8154C83.3598 10.3994 83.8156 10.2157 84.1829 9.84845C84.5502 9.47461 84.7338 9.00895 84.7338 8.45146C84.7338 7.89398 84.5502 7.42831 84.1829 7.05447C83.8156 6.68063 83.3598 6.49371 82.8154 6.49371H79.7361Z" fill="#ffffff"/>
<path d="M89.702 17.7779V3.87681H92.4862V17.7779H89.702Z" fill="#ffffff"/>
<path d="M100.75 3.87681C101.747 3.87681 102.685 4.05389 103.564 4.40806C104.443 4.76223 105.194 5.24756 105.817 5.86408C106.446 6.47403 106.941 7.2086 107.302 8.06778C107.663 8.92696 107.843 9.84517 107.843 10.8224C107.843 11.7996 107.663 12.7179 107.302 13.577C106.941 14.4362 106.446 15.1741 105.817 15.7906C105.194 16.4071 104.443 16.8924 103.564 17.2466C102.685 17.6008 101.747 17.7779 100.75 17.7779H95.3096V3.87681H100.75ZM100.691 15.161C101.917 15.161 102.937 14.7478 103.751 13.9214C104.57 13.095 104.98 12.062 104.98 10.8224C104.98 9.58283 104.57 8.55312 103.751 7.73329C102.937 6.9069 101.917 6.49371 100.691 6.49371H98.0938V15.161H100.691Z" fill="#ffffff"/>
<path d="M116.884 9.95667H123.574V10.9306C123.574 12.2751 123.269 13.4885 122.659 14.5707C122.056 15.6529 121.216 16.4989 120.141 17.1089C119.065 17.7188 117.858 18.0238 116.52 18.0238C115.497 18.0238 114.536 17.8402 113.638 17.4729C112.739 17.099 111.969 16.594 111.326 15.9578C110.683 15.3216 110.175 14.5608 109.801 13.6754C109.434 12.7834 109.25 11.8324 109.25 10.8224C109.25 9.81238 109.437 8.86466 109.811 7.97924C110.185 7.08726 110.696 6.32318 111.346 5.68699C111.995 5.05081 112.772 4.54907 113.677 4.18179C114.582 3.8145 115.55 3.63086 116.579 3.63086C117.786 3.63086 118.898 3.87353 119.914 4.35887C120.938 4.84421 121.761 5.50991 122.384 6.35598L120.288 8.02843C119.868 7.48406 119.341 7.06103 118.704 6.75933C118.075 6.45108 117.386 6.29695 116.638 6.29695C115.346 6.29695 114.267 6.72654 113.402 7.58572C112.536 8.4449 112.103 9.5238 112.103 10.8224C112.103 12.121 112.533 13.2032 113.392 14.0689C114.251 14.9281 115.327 15.3577 116.619 15.3577C117.616 15.3577 118.485 15.0888 119.226 14.551C119.967 14.0066 120.442 13.3016 120.652 12.4358H116.884V9.95667Z" fill="#ffffff"/>
<path d="M128.375 15.161H135.045V17.7779H125.591V3.87681H134.947V6.49371H128.375V9.47461H134.278V12.0915H128.375V15.161Z" fill="#ffffff"/>
<path d="M150.491 10.3994C151.166 10.642 151.717 11.0979 152.144 11.7669C152.57 12.4358 152.783 13.1835 152.783 14.0099C152.783 15.1052 152.412 16.007 151.671 16.7154C150.93 17.4237 149.999 17.7779 148.877 17.7779H141.883V3.87681H148.415C149.458 3.87681 150.333 4.2113 151.042 4.88028C151.75 5.54926 152.104 6.39533 152.104 7.41848C152.104 8.06122 151.953 8.6515 151.652 9.18931C151.35 9.72712 150.963 10.1305 150.491 10.3994ZM147.726 6.37565H144.588V9.43526H147.726C148.14 9.43526 148.494 9.28769 148.789 8.99255C149.091 8.69741 149.241 8.33341 149.241 7.90054C149.241 7.46766 149.097 7.10694 148.808 6.81836C148.52 6.52322 148.159 6.37565 147.726 6.37565ZM148.189 15.279C148.681 15.279 149.094 15.1118 149.428 14.7773C149.763 14.4362 149.93 14.0197 149.93 13.5279C149.93 13.0425 149.763 12.6326 149.428 12.2981C149.094 11.9636 148.681 11.7964 148.189 11.7964H144.588V15.279H148.189Z" fill="#ffffff"/>
<path d="M164.175 17.7779L163.182 15.0822H157.22L156.236 17.7779H153.236L158.587 3.87681H161.873L167.215 17.7779H164.175ZM158.145 12.5145H162.237L160.201 6.93641L158.145 12.5145Z" fill="#ffffff"/>
<path d="M177.988 3.87681H180.772V17.7779H177.949L171.623 8.64822V17.7779H168.839V3.87681H171.662L177.988 13.0064V3.87681Z" fill="#ffffff"/>
<path d="M192.263 17.7779L187.668 12.5834L186.38 13.9902V17.7779H183.596V3.87681H186.38V10.2223L192.086 3.87681H195.627L189.479 10.5863L195.893 17.7779H192.263Z" fill="#ffffff"/>
<g clip-path="url(#clip0_1151_55)">
<path d="M54.0442 8.88934L45.9849 0.830078H34.0146L27.496 7.3486L21.2146 0.830078H9.12567L1.06641 8.88934L8.17752 16.0004L1.06641 23.1116L9.12567 31.1708H21.096L27.6146 24.6523L33.896 31.1708H45.8664L53.9257 23.1116L46.8146 16.0004L54.0442 8.88934ZM34.7257 2.72637H45.2738L51.5553 9.00786L45.2738 15.2893H34.7257L28.6812 8.88934L34.7257 2.72637ZM20.3849 29.393H9.83678L3.5553 23.1116L9.83678 16.8301H20.3849L26.4294 23.2301L20.3849 29.393ZM51.4368 23.1116L45.1553 29.393H34.6072L28.7997 23.3486L20.9775 15.1708H9.83678L3.67381 8.88934L9.9553 2.60786H20.5034L26.3109 8.6523L34.1331 16.8301H45.3923L51.4368 23.1116Z" fill="#FF3A03"/>
</g>
<defs>
<clipPath id="clip0_1151_55">
<rect width="54.5185" height="32" fill="white"/>
</clipPath>
</defs>
</svg>